<svg xmlns="http://www.w3.org/2000/svg" width="600" height="600"><path d="M300 0C221.302 0 150.098 8.011 97.068 21.535c-26.515 6.762-48.462 14.743-65.39 24.95C16.58 55.586 3.245 67.928.53 85H0v5c0 5.16 3.64 12.943 17.031 22.838 13.392 9.894 35.088 20.167 62.66 28.783C134.835 158.854 213.324 170 300 170c86.676 0 165.165-11.146 220.309-28.379 27.572-8.616 49.268-18.889 62.66-28.783C596.36 102.943 600 95.16 600 90h-.127c-.678-19.681-15.026-33.552-31.55-43.516-16.929-10.206-38.876-18.187-65.391-24.949C449.902 8.011 378.698 0 300 0zM0 149.68v84.427c.705 5.113 4.66 12.197 16.723 21.11C30.115 265.11 51.81 275.384 79.383 284c55.144 17.233 133.632 28.379 220.308 28.379 86.677 0 165.165-11.146 220.309-28.379 27.572-8.616 49.268-18.889 62.66-28.783 13.392-9.895 17.031-17.678 17.031-22.838H600v-82.7c-18.067 11.894-40.872 21.72-67.76 30.122C471.568 198.76 390.054 210 300 210s-171.568-11.239-232.24-30.2C40.872 171.399 18.067 161.574 0 149.68zm600 142.117c-9.749 6.455-20.818 12.332-33.25 17.672-10.68 4.587-22.31 8.802-34.818 12.71-60.673 18.96-142.187 30.2-232.24 30.2-90.055 0-171.568-11.24-232.24-30.2C40.72 313.827 18.016 304.072 0 292.272V380c0 5.16 3.64 12.943 17.031 22.838 13.392 9.894 35.088 20.167 62.66 28.783C134.835 448.854 213.324 460 300 460c86.676 0 165.165-11.146 220.309-28.379 27.572-8.616 49.268-18.889 62.66-28.783C596.36 392.943 600 385.16 600 380v-88.203zM0 439.68V515h.531c2.714 17.071 16.049 29.413 31.147 38.516 16.928 10.206 38.875 18.187 65.39 24.949C150.098 591.989 221.302 600 300 600s149.901-8.011 202.932-21.535c26.515-6.762 48.462-14.743 65.39-24.95 15.098-9.102 28.433-21.444 31.147-38.515H600V439.68c-18.067 11.893-40.872 21.718-67.76 30.12C471.567 488.762 390.054 500 300 500s-171.567-11.239-232.24-30.2C40.872 461.399 18.067 451.574 0 439.68z" style="color:#dedbd2;fill:#dedbd2;stroke-linejoin:round;-inkscape-stroke:none;paint-order:stroke fill markers"/></svg>