<svg xmlns="http://www.w3.org/2000/svg" width="1146.667" height="1146.667" viewBox="0 0 860 860" preserveAspectRatio="xMidYMid meet" fill="#fff" xmlns:v="https://vecta.io/nano"><path d="M460.5 161.5c-40.4 4.6-74.6 16.4-104.7 36.1-11.7 7.6-15.8 9-21.4 7.5-9.5-2.5-14.1-8.2-15.4-18.7-1-8-4.4-13.5-10-16.4-3.9-2-5.3-2-63.3-1.8l-59.4.3-3.6 2.8c-2.1 1.6-4.6 4.6-5.7 6.7-2 3.9-2 6.3-2 250l1.4 249.3c1.8 4.4 7.7 9.4 12.6 10.7 2.6.7 23.5 1 63.7.8l59.8-.3 3.8-2.4c2.1-1.3 5-4.2 6.5-6.4 2.7-4 2.7-4.4 3-23.1.4-19.6-1.1-57.7-2.8-74.6-5.4-51.5-11.9-86.7-31.9-173-5.6-24.4-11.4-53.2-13.3-66.5-1.9-13.9-1.6-42.5.6-50.5 5.2-19 17.1-31.1 35.9-36.9 12.6-3.8 40.8-8.1 68.2-10.2 18.3-1.4 53.7-.6 68.5 1.6 34.1 5 58.5 15.5 73.2 31.3 10.7 11.6 15.1 22.3 16.7 40.5 1.3 15 4 21.6 11.9 28.8 14.4 13.1 32.7 17.5 78.2 18.7l26.5.8 5.3 2.8c9.1 5.1 13.2 12.7 13.2 24.8 0 17.7-12.3 28.3-39.5 33.9-11.2 2.3-23.4 2.6-76.5 2.1-42.1-.5-52.6.9-70 9.1-11.4 5.3-21.9 15.7-27.2 26.7-9.3 19.3-15.1 49.3-19.4 99.5-2.1 24.6-3.1 103.3-1.4 109.5 1.5 5.7 7.2 11.2 13.1 12.9 3.3.9 32.5 1.1 121.4.9l117-.3 4.7-2.7c3.2-2 5.2-4.1 6.7-7.2l2.2-4.4-.4-160.3c-.4-171.7-.1-161.2-5.2-188.3-5-26.6-15.7-55-28.4-75.6-29.7-47.9-77.1-77.4-139.8-87.1-17.9-2.7-55.1-3.5-72.8-1.4zm-8.3 133.1c-14.2 3.8-24.8 14.5-28.7 28.9-5 18.2 4 38 21.3 46.6 6.4 3.2 7.2 3.4 17.7 3.4 9.9 0 11.6-.3 16.8-2.7 8-3.8 16.1-11.7 20-19.7 3-6.2 3.2-7.2 3.2-17.6 0-10.1-.3-11.5-3-17-8.6-17.7-28.6-27-47.3-21.9z"/></svg>